{"title":"Scream 4 2011 TS XviD Feel-Free","uid":6330973,"size":852351914,"categoryP":"video","categoryS":"movies","magnet":"?xt=urn:btih:07f3aa84910da823e65041c3609d50b7af1b16b9&amp;dn=Scream+4+2011+TS+XviD+Feel-Free&amp;tr=udp%3A%2F%2Ftracker.openbittorrent.com%3A80&amp;tr=udp%3A%2F%2Fopen.demonii.com%3A1337&amp;tr=udp%3A%2F%2Ftracker.coppersurfer.tk%3A6969&amp;tr=udp%3A%2F%2Fexodus.desync.com%3A6969","seeders":1,"leechers":0,"uploader":"hiest","files":-1,"time":1303282842,"description":" ######## ######## ######## ##          ######## ########  ######## ######## \n ##       ##       ##       ##          ##       ##     ## ##       ##       \n ##       ##       ##       ##          ##       ##     ## ##       ##       \n ######   ######   ######   ##          ######   ########  ######   ######   \n ##       ##       ##       ##          ##       ##   ##   ##       ##       \n ##       ##       ##       ##          ##       ##    ##  ##       ##       \n ##       ######## ######## ########    ##       ##     ## ######## ########  \n\n Genre:Horror | Mystery | Thriller\n Language:English\n IMDb:\n &lt;a href=&quot; http://www.imdb.com/title/tt1262416/&quot; rel=&quot;nofollow&quot; target=&quot;_NEW&quot;&gt; http://www.imdb.com/title/tt1262416/&lt;/a&gt;\n Source:Addicted/Audio:Imagine Thanks!\n\n\n Format : AVI\n Format/Info : Audio Video Interleave\n File size : 811 MiB\n Duration : 1h 43mn\n Overall bit rate : 1 097 Kbps\n\n\n Video\n ID : 0\n Format : MPEG-4 Visual\n Format profile : Advanced Simple@L5\n Format settings, BVOP : Yes\n Format settings, QPel : No\n Format settings, GMC : No warppoints\n Format settings, Matrix : Default (H.263)\n Muxing mode : Packed bitstream\n Codec ID : XVID\n Codec ID/Hint : XviD\n Duration : 1h 43mn\n Bit rate : 959 Kbps\n Width : 720 pixels\n Height : 304 pixels\n Display aspect ratio : 2.35:1\n Frame rate : 25.000 fps\n Color space : YUV\n Chroma subsampling : 4:2:0\n Bit depth : 8 bits\n Scan type : Progressive\n Bits/(Pixel*Frame) : 0.175\n Stream size : 709 MiB (87%)\n Writing library : XviD 1.2.1 (UTC 2008-12-04)\n\n Audio\n ID : 1\n Format : MPEG Audio\n Format version : Version 1\n Format profile : Layer 3\n Mode : Joint stereo\n Mode extension : MS Stereo\n Codec ID : 55\n Codec ID/Hint : MP3\n Duration : 1h 43mn\n Bit rate mode : Constant\n Bit rate : 128 Kbps\n Channel(s) : 2 channels\n Sampling rate : 44.1 KHz\n Stream size : 94.6 MiB (12%)\n Alignment : Split accross interleaves\n Interleave, duration : 40 ms (1.00 video frame)\n Interleave, preload duration : 500 ms\n\n\n Plot:\n Ten years have passed, and Sidney Prescott, who has put herself back together  thanks in part to her writing, is visited by the Ghostface Killer.\n\n ######## ######## ######## ##          ######## ########  ######## ######## \n ##       ##       ##       ##          ##       ##     ## ##       ##       \n ##       ##       ##       ##          ##       ##     ## ##       ##       \n ######   ######   ######   ##          ######   ########  ######   ######   \n ##       ##       ##       ##          ##       ##   ##   ##       ##       \n ##       ##       ##       ##          ##       ##    ##  ##       ##       \n ##       ######## ######## ########    ##       ##     ## ######## ########  ","torrent":{"xt":"urn:btih:07f3aa84910da823e65041c3609d50b7af1b16b9","amp;dn":"Scream+4+2011+TS+XviD+Feel-Free","amp;tr":["udp%3A%2F%2Ftracker.openbittorrent.com%3A80","udp%3A%2F%2Fopen.demonii.com%3A1337","udp%3A%2F%2Ftracker.coppersurfer.tk%3A6969","udp%3A%2F%2Fexodus.desync.com%3A6969"],"infoHash":"07f3aa84910da823e65041c3609d50b7af1b16b9","infoHashBuffer":{"type":"Buffer","data":[7,243,170,132,145,13,168,35,230,80,65,195,96,157,80,183,175,27,22,185]},"announce":[],"urlList":[]}}